<?xml version="1.0" encoding="UTF-8"?>
<svg version="1.1" xmlns="http://www.w3.org/2000/svg" width="512" height="512">
<path d="M0 0 C168.96 0 337.92 0 512 0 C512 168.96 512 337.92 512 512 C343.04 512 174.08 512 0 512 C0 343.04 0 174.08 0 0 Z " fill="#FDFDFD" transform="translate(0,0)"/>
<path d="M0 0 C168.96 0 337.92 0 512 0 C512 168.96 512 337.92 512 512 C343.04 512 174.08 512 0 512 C0 343.04 0 174.08 0 0 Z M208 21 C206.2078795 21.38160968 204.41488724 21.75914586 202.62109375 22.1328125 C157.59671374 31.8169637 118.87785353 55.30162104 86 87 C85.13246094 87.82628906 84.26492187 88.65257813 83.37109375 89.50390625 C64.2199943 108.12210554 49.11775474 131.82257421 38 156 C37.6690332 156.71704102 37.33806641 157.43408203 36.99707031 158.17285156 C28.28980573 177.2955044 22.42729695 197.28275723 19 218 C18.82484863 218.95793457 18.64969727 219.91586914 18.46923828 220.90283203 C16.5980316 232.14520317 16.51712922 243.37675489 16.5 254.75 C16.49732117 255.80303314 16.49464233 256.85606628 16.49188232 257.94100952 C16.50559995 282.94043657 19.5255104 307.30501205 28.22900391 330.88867188 C29.03115944 333.08532833 29.77407562 335.29653673 30.51171875 337.515625 C39.11172404 362.80772466 52.57108563 386.72759672 70 407 C70.89811215 408.07991761 71.79516289 409.16071844 72.69140625 410.2421875 C82.78517061 422.3292653 93.55351114 433.31551288 106 443 C107.43859375 444.16402344 107.43859375 444.16402344 108.90625 445.3515625 C118.1147025 452.67646789 127.91234413 458.95614038 138 465 C138.63099609 465.37898438 139.26199219 465.75796875 139.91210938 466.1484375 C163.60175224 480.13610676 190.99827024 488.44937291 218 493 C218.96228516 493.17660156 219.92457031 493.35320312 220.91601562 493.53515625 C232.15304893 495.40463277 243.38236032 495.48287922 254.75 495.5 C256.32954971 495.50401825 256.32954971 495.50401825 257.94100952 495.50811768 C283.80567005 495.49392528 308.66154893 492.07787108 333 483 C334.7472518 482.37459744 336.49465491 481.74961753 338.2421875 481.125 C349.22596655 477.13107783 359.71735262 472.54954038 370 467 C371.155 466.38640625 372.31 465.7728125 373.5 465.140625 C388.18434784 457.06423369 401.47220768 447.08743117 414 436 C415.32257813 434.84371094 415.32257813 434.84371094 416.671875 433.6640625 C426.32072982 425.12392702 435.03454126 416.13162479 443 406 C443.77988281 405.03707031 444.55976563 404.07414062 445.36328125 403.08203125 C462.05938776 382.07209818 474.48960526 358.40807788 483 333 C483.26651367 332.23123535 483.53302734 331.4624707 483.80761719 330.67041016 C487.78849062 319.17197657 490.59276136 307.65357402 492.55810547 295.64428711 C492.85690495 293.85627763 493.18492557 292.07294553 493.53955078 290.29516602 C495.58566488 279.1695349 495.39540339 267.96366814 495.375 256.6875 C495.37468277 255.07903702 495.37468277 255.07903702 495.37435913 253.43807983 C495.34363947 237.86874265 494.65288347 223.18657997 491 208 C490.61839032 206.2078795 490.24085414 204.41488724 489.8671875 202.62109375 C486.21418666 185.63978385 480.63590688 169.36302851 472.89160156 153.81542969 C471.98814882 151.97586929 471.12815399 150.12045848 470.2734375 148.2578125 C463.00105039 132.70369641 453.18683761 118.01194547 442 105 C441.10188785 103.92008239 440.20483711 102.83928156 439.30859375 101.7578125 C429.21482939 89.6707347 418.44648886 78.68448712 406 69 C405.0409375 68.22398438 404.081875 67.44796875 403.09375 66.6484375 C376.29075771 45.32787545 343.90148258 29.91167335 310.44384766 22.54882812 C308.73606211 22.16530146 307.03281252 21.76125825 305.33349609 21.34179688 C274.52033339 13.85107373 238.84445857 13.58086988 208 21 Z " fill="#050505" transform="translate(0,0)"/>
<path d="M0 0 C8.39400929 3.35760372 15.05372829 12.02402333 21.34107971 18.29872131 C22.35337516 19.30555843 23.3658733 20.31219179 24.37855476 21.31864065 C27.14258611 24.06694361 29.90355009 26.81830955 32.66394413 29.57026517 C35.03636028 31.93463434 37.41058761 34.29718069 39.78481979 36.65972603 C48.27976487 45.11293782 56.76753081 53.57334247 65.25390625 62.03515625 C65.92424042 62.70351552 66.59457458 63.37187478 67.2852219 64.06048736 C80.61103872 77.34713089 93.93409942 90.63653543 107.2514658 103.93164921 C110.17403322 106.84924795 113.09663848 109.76680878 116.01928711 112.68432617 C116.74562754 113.40939593 117.47196798 114.1344657 118.22031873 114.88150727 C129.98931071 126.62913452 141.77205559 138.36286927 153.56033946 150.09113438 C165.67953133 162.14913262 177.78539804 174.22038401 189.8786692 186.3043794 C196.66235439 193.08216465 203.45179529 199.85395707 210.2564106 206.61073494 C216.0501634 212.36379169 221.83180304 218.12868564 227.59819479 223.90917195 C230.53712571 226.85454743 233.48131226 229.79408004 236.44125175 232.71835518 C239.15766405 235.40230008 241.85701273 238.10231296 244.54439496 240.81531542 C245.96671373 242.24294465 247.40611828 243.65349082 248.84631449 245.06308323 C256.91827182 253.27125892 263.29436428 262.61472352 263.8125 274.4375 C263.09669325 286.30133411 258.9036597 294.25993177 250.125 302.25 C241.93608756 308.36681921 233.02489862 309.10419479 223.125 308.25 C209.36653832 305.19685822 199.21399115 292.65211615 189.63671875 283.0625 C188.36283036 281.7925085 187.0887224 280.52273721 185.81440735 279.25317383 C183.16120255 276.6073814 180.51184064 273.95781279 177.86499023 271.30566406 C174.48667737 267.92153795 171.09708453 264.54896404 167.70431805 261.17933655 C165.07641522 258.56621303 162.4555224 255.94614464 159.83655739 253.32406616 C158.58986942 252.07788845 157.34084374 250.83404452 156.08936119 249.59268188 C138.26134208 231.89132257 138.26134208 231.89132257 137.875 218.9375 C137.89301565 215.40042807 138.63022869 212.60931034 139.6875 209.25 C140.37912161 206.77819934 140.37912161 206.77819934 140.125 204.25 C137.70823637 200.52392875 134.89654703 197.60873279 131.125 195.25 C127.96961708 195.4170146 125.87449172 196.92906577 123.3125 198.6875 C116.66136328 202.92560922 109.91130057 204.31736751 102.125 203.25 C90.16530088 199.49878842 82.17978653 190.09152896 73.66796875 181.4140625 C72.11130108 179.84872174 70.55336039 178.28464602 68.99421692 176.72177124 C64.91456853 172.62498858 60.85365875 168.51010573 56.79614258 164.39141846 C53.4896858 161.04132737 50.17020198 157.70431567 46.84992504 154.36792946 C42.86835902 150.36668519 38.89220892 146.36008212 34.91796875 142.3515625 C34.16862753 141.59579548 33.41928631 140.84002846 32.64723778 140.06135941 C30.51092969 137.90387553 28.37822802 135.7428962 26.24682617 133.58056641 C25.62694321 132.95485245 25.00706024 132.32913849 24.36839294 131.6844635 C-0.72929294 106.15922456 -19.10042973 76.19709053 -19.2644043 39.59741211 C-19.0990556 26.83461986 -15.9321631 13.51531873 -7.4375 3.56640625 C-5.0469599 1.26924662 -3.30931389 0.28776642 0 0 Z " fill="#060606" transform="translate(132.875,105.75)"/>
<path d="M0 0 C0.33 0 0.66 0 1 0 C1 78.21 1 156.42 1 237 C-78.53 237 -158.06 237 -240 237 C-240 236.67 -240 236.34 -240 236 C-238.906875 235.90203125 -237.81375 235.8040625 -236.6875 235.703125 C-207.12788597 232.91252071 -179.44693033 226.4216645 -152 215 C-151.27828613 214.7004541 -150.55657227 214.4009082 -149.81298828 214.09228516 C-130.39324954 205.86804168 -112.41430687 194.16206574 -96 181 C-95.46858398 180.58282715 -94.93716797 180.1656543 -94.38964844 179.73583984 C-79.55844992 168.05079438 -65.23510224 154.19433569 -54 139 C-53.53110352 138.38044434 -53.06220703 137.76088867 -52.57910156 137.12255859 C-38.83955751 118.93837025 -27.85473195 99.99983324 -19 79 C-18.66629395 78.21915039 -18.33258789 77.43830078 -17.98876953 76.63378906 C-7.67196562 52.28127189 -2.63776426 26.23582727 0 0 Z " fill="#FDFDFD" transform="translate(511,275)"/>
<path d="M0 0 C78.87 0 157.74 0 239 0 C239 79.53 239 159.06 239 241 C238.67 241 238.34 241 238 241 C237.90501221 240.11554199 237.81002441 239.23108398 237.7121582 238.31982422 C231.28997844 179.540681 211.50427394 126.25711562 170.41015625 82.62109375 C168 80 168 80 165.90625 77.359375 C164.19160596 75.23715163 162.51861761 73.56099838 160.4375 71.8125 C157.20577402 69.06108559 154.09502084 66.2167 151 63.3125 C133.59499758 47.52878548 113.31673998 34.8011138 92 25 C91.36320312 24.70432129 90.72640625 24.40864258 90.0703125 24.10400391 C85.42354303 21.96140463 80.73183106 19.94691117 76 18 C75.29601074 17.70738281 74.59202148 17.41476563 73.86669922 17.11328125 C50.15952208 7.39922432 25.28219562 3.82604515 0 1 C0 0.67 0 0.34 0 0 Z " fill="#FDFDFD" transform="translate(273,0)"/>
<path d="M0 0 C0.33 0 0.66 0 1 0 C1.08975098 0.74233887 1.17950195 1.48467773 1.27197266 2.24951172 C4.20368152 26.02811674 7.97388264 49.43100005 17.07910156 71.7421875 C18.02002697 74.04910111 18.92839906 76.36727473 19.8359375 78.6875 C28.9113223 101.46268442 41.77316037 121.88131638 57 141 C58.17949219 142.48886719 58.17949219 142.48886719 59.3828125 144.0078125 C63.65726334 149.32551914 68.07802936 154.28122998 73 159 C75.42348578 161.40397301 77.8273742 163.81903628 80.18359375 166.2890625 C86.93085319 173.28188944 94.24586334 179.17263585 102 185 C103.56621094 186.20076172 103.56621094 186.20076172 105.1640625 187.42578125 C121.91902332 200.01909258 140.61882703 210.10846556 160 218 C160.70560059 218.28810547 161.41120117 218.57621094 162.13818359 218.87304688 C186.34368089 228.62176647 211.18010275 232.92274189 237 236 C237 236.33 237 236.66 237 237 C158.79 237 80.58 237 0 237 C0 158.79 0 80.58 0 0 Z " fill="#FDFDFD" transform="translate(0,275)"/>
<path d="M0 0 C78.21 0 156.42 0 237 0 C237 0.33 237 0.66 237 1 C236.42894531 1.06469482 235.85789063 1.12938965 235.26953125 1.19604492 C199.52759185 5.33350114 166.84806135 14.1575824 135 31 C134.02450195 31.51167725 134.02450195 31.51167725 133.02929688 32.03369141 C114.78079093 41.68382497 98.5644115 53.98282764 83.34375 67.87890625 C81.20075688 69.81831503 79.01655362 71.69329299 76.8125 73.5625 C73.60064255 76.3720771 70.77972764 79.34363871 68.02734375 82.6015625 C66.47911284 84.43318827 64.91099072 86.23292949 63.31640625 88.0234375 C44.51011437 109.28258847 29.74241345 133.74840618 19 160 C18.57581787 161.01852051 18.57581787 161.01852051 18.14306641 162.05761719 C7.75406271 187.23891091 3.41898905 214.00917483 1 241 C0.67 241 0.34 241 0 241 C0 161.47 0 81.94 0 0 Z " fill="#FDFDFD" transform="translate(0,0)"/>
<path d="M0 0 C4.33003725 3.49733778 8.05271848 7.11847381 11.59765625 11.40625 C13.50711033 13.57632595 15.71340657 15.24108198 18 17 C20.86166082 19.71490898 23.47446212 22.53960555 26 25.5625 C28.43195146 28.44227883 31.00554608 30.69657391 34 33 C36.86166082 35.71490898 39.47446212 38.53960555 42 41.5625 C44.43195146 44.44227883 47.00554608 46.69657391 50 49 C52.86166082 51.71490898 55.47446212 54.53960555 58 57.5625 C60.43195146 60.44227883 63.00554608 62.69657391 66 65 C68.86166082 67.71490898 71.47446212 70.53960555 74 73.5625 C76.43195146 76.44227883 79.00554608 78.69657391 82 81 C84.86166082 83.71490898 87.47446212 86.53960555 90 89.5625 C92.43195146 92.44227883 95.00554608 94.69657391 98 97 C100.86166082 99.71490898 103.47446212 102.53960555 106 105.5625 C108.43195146 108.44227883 111.00554608 110.69657391 114 113 C116.86166082 115.71490898 119.47446212 118.53960555 122 121.5625 C124.43195146 124.44227883 127.00554608 126.69657391 130 129 C132.86166082 131.71490898 135.47446212 134.53960555 138 137.5625 C140.43195146 140.44227883 143.00554608 142.69657391 146 145 C148.86166082 147.71490898 151.47446212 150.53960555 154 153.5625 C156.43195146 156.44227883 159.00554608 158.69657391 162 161 C164.86166082 163.71490898 167.47446212 166.53960555 170 169.5625 C172.43195146 172.44227883 175.00554608 174.69657391 178 177 C180.86166082 179.71490898 183.47446212 182.53960555 186 185.5625 C188.43195146 188.44227883 191.00554608 190.69657391 194 193 C196.86166082 195.71490898 199.47446212 198.53960555 202 201.5625 C204.43195146 204.44227883 207.00554608 206.69657391 210 209 C212.86166082 211.71490898 215.47446212 214.53960555 218 217.5625 C220.43195146 220.44227883 223.00554608 222.69657391 226 225 C228.86166082 227.71490898 231.47446212 230.53960555 234 233.5625 C235.8293617 235.73986367 237.43081033 237.34064073 239.6875 239.125 C243.09941136 241.89141462 244.79608692 244.51463317 245.3984375 248.90234375 C245.31718477 259.42457274 245.31718477 259.42457274 242 264 C237.71509362 267.9635384 234.45828913 269.16084717 228.6875 269.3125 C227.76324219 269.34988281 226.83898437 269.38726562 225.88671875 269.42578125 C219.51067732 268.48533671 215.01101223 263.30156984 210.64331055 258.90209961 C210.03931931 258.30161301 209.43532806 257.7011264 208.81303406 257.08244324 C206.83255954 255.11071963 204.8594296 253.13183261 202.88671875 251.15234375 C201.50792668 249.77489971 200.12883791 248.39775261 198.74946594 247.02088928 C195.86739366 244.14175881 192.98895332 241.25905859 190.11303711 238.3737793 C186.42311925 234.67243533 182.72425219 230.98018532 179.0226469 227.29053402 C176.17695163 224.45205535 173.33602416 221.6088434 170.49653053 218.76416206 C169.13400971 217.40030586 167.76999829 216.03793714 166.4044857 214.67707634 C164.50135398 212.77900996 162.60472819 210.87467484 160.7097168 208.96850586 C160.14299255 208.40583008 159.57626831 207.8431543 158.99237061 207.26342773 C155.36079533 203.59203606 153.85546137 201.15819875 153.875 196 C153.87242187 195.319375 153.86984375 194.63875 153.8671875 193.9375 C154 192 154 192 155 189 C155.17013321 187.06717522 155.26614133 185.12724427 155.3125 183.1875 C155.34988281 182.17042969 155.38726562 181.15335938 155.42578125 180.10546875 C154.53400604 173.6012367 149.53836291 169.19792369 145.0625 164.75 C144.55009766 164.22148437 144.03769531 163.69296875 143.50976562 163.1484375 C138.62619817 158.25866475 134.90611219 156.71307738 128.0625 156.625 C121.83518195 156.72433145 118.65108158 158.44033502 114.1875 162.75 C110.60913912 164.79477764 107.01426853 164.50630414 103 164 C99.38280691 162.62202168 97.47701301 160.45544655 95.03955078 157.5690918 C90.28355686 152.08866323 85.13332331 147.00855721 79.9921875 141.89453125 C78.9377779 140.84199235 77.88359302 139.78922828 76.82962036 138.73625183 C74.07523625 135.98565409 71.31786471 133.2380709 68.55981445 130.4911499 C65.75811073 127.69969731 62.95924895 124.90539845 60.16015625 122.11132812 C55.23449875 117.19519389 50.3063855 112.28153355 45.37643433 107.3697052 C43.70684085 105.70483936 42.03922928 104.03798477 40.37307739 102.36967468 C38.64904766 100.648117 36.91228034 98.9392858 35.16796875 97.23828125 C14.50157028 77.02922571 -3.64108568 51.0795776 -4.1875 21.1875 C-4.13168939 13.70090529 -3.59238892 6.67157943 0 0 Z " fill="#FCFCFC" transform="translate(134,128)"/>
<path d="M0 0 C3.27155869 2.36665948 4.70646942 3.89926032 5.75 7.8125 C3.66005802 16.69475342 -7.38998732 24.47898226 -13.76016998 30.77420425 C-15.73902166 32.73080554 -17.71368782 34.69154268 -19.68719482 36.65353394 C-25.29305189 42.22599829 -30.90316909 47.79411912 -36.5234375 53.35205078 C-39.97442411 56.76534657 -43.41801847 60.18595289 -46.85701752 63.61132431 C-48.1635551 64.90982869 -49.47286015 66.20555482 -50.78501129 67.49838638 C-52.61788299 69.30471274 -54.44120155 71.12019901 -56.26269531 72.93798828 C-56.80195648 73.46489258 -57.34121765 73.99179687 -57.89682007 74.53466797 C-62.10775686 78.76821724 -65.4260616 83.22113955 -65.4375 89.375 C-65.23261806 94.2347996 -64.07171449 98.17761371 -61 102 C-56.94587869 105.1840997 -52.28292783 106.80459981 -47.11457348 106.42345905 C-40.25121617 105.04902075 -34.79950656 99.22411249 -30.08081055 94.40551758 C-29.44072556 93.76426437 -28.80064056 93.12301117 -28.14115906 92.46232605 C-26.04926454 90.3633045 -23.96809397 88.25397935 -21.88671875 86.14453125 C-20.42633597 84.67600335 -18.96520838 83.20821577 -17.50337219 81.74113464 C-13.67253993 77.89325015 -9.85038264 74.0368697 -6.03045654 70.17816162 C0.09854955 63.98976068 6.24047095 57.81418286 12.382864 51.63907433 C14.52551968 49.48245742 16.66431869 47.32207328 18.80256653 45.16108704 C20.11088995 43.84274278 21.41929125 42.52447581 22.7277832 41.20629883 C23.32157776 40.60419586 23.91537231 40.0020929 24.52716064 39.38174438 C26.92325954 36.97269706 29.16307009 34.89128661 32 33 C35.8408179 33.13966611 38.25602431 33.48493991 41.4375 35.6875 C43 38 43 38 43.6875 40.75 C40.77119244 54.53618117 17.6440876 70.75187331 7.93286133 80.52709961 C4.8520802 83.63019285 1.78137145 86.74275861 -1.28100586 89.86401367 C-5.00172521 93.65608268 -8.73960104 97.43042905 -12.49003029 101.19310951 C-13.90690499 102.62032737 -15.31780113 104.05350862 -16.72226524 105.4929409 C-25.47999627 114.45745911 -33.22110288 122.11155078 -46.25 123.69921875 C-56.54096591 123.66705948 -64.30328697 121.82175878 -72.33984375 115.01953125 C-78.72555621 108.4911213 -83.1933211 100.06257135 -83.4375 90.8125 C-83.33734196 89.2048351 -83.19264536 87.59922038 -83 86 C-82.91621094 85.23945313 -82.83242187 84.47890625 -82.74609375 83.6953125 C-81.19652275 74.2673963 -74.73828123 67.28891744 -68.18774414 60.73608398 C-67.53486923 60.07152695 -66.88199432 59.40696991 -66.20933533 58.72227478 C-64.07586497 56.55554877 -61.9314536 54.40010953 -59.78515625 52.24609375 C-58.28578021 50.73452298 -56.78655061 49.22280693 -55.28746033 47.71095276 C-52.15681219 44.55792252 -49.01985283 41.41132407 -45.87915039 38.26831055 C-41.8560716 34.23992333 -37.85660377 30.18892358 -33.86234379 26.13198757 C-30.77981551 23.00863682 -27.68164936 19.90116771 -24.57888603 16.79792976 C-23.09680008 15.31045928 -21.62045359 13.81724698 -20.15004158 12.3182354 C-18.09676547 10.22834327 -16.02255305 8.16170056 -13.94165039 6.09936523 C-13.34039337 5.47765442 -12.73913635 4.8559436 -12.11965942 4.21539307 C-8.17951206 0.37120754 -5.73482351 -0.90709708 0 0 Z " fill="#030303" transform="translate(189,290)"/>
<path d="M0 0 C3.65585129 0.79475028 5.34009072 1.87281278 7.875 4.625 C8.9375 7.5 8.9375 7.5 8.875 10.625 C6.27928173 15.06379172 3.12140328 18.63852073 -0.54858398 22.19628906 C-1.07758301 22.71754868 -1.60658203 23.23880829 -2.15161133 23.77586365 C-3.2925572 24.89925476 -4.43571492 26.0204031 -5.58086967 27.13950348 C-7.39895568 28.91787836 -9.20917752 30.70391929 -11.01734924 32.49237061 C-16.15650235 37.57376026 -21.30518235 42.64532676 -26.46899414 47.70166016 C-29.63565792 50.80349945 -32.78968887 53.91773285 -35.9363575 57.03984833 C-37.1304659 58.21979717 -38.32921281 59.39507264 -39.53283501 60.56531525 C-50.38700302 71.06010701 -50.38700302 71.06010701 -55.67333984 84.92822266 C-55.64449707 85.8722998 -55.6156543 86.81637695 -55.5859375 87.7890625 C-55.58207031 89.37847656 -55.58207031 89.37847656 -55.578125 91 C-55.52584914 93.1746757 -55.46589657 95.34917983 -55.3984375 97.5234375 C-55.3984375 103.20956122 -55.61334619 106.7639374 -59.44921875 111.14453125 C-60.65637461 112.32351401 -61.87956184 113.48653199 -63.125 114.625 C-63.76308594 115.37910156 -64.40117187 116.13320312 -65.05859375 116.91015625 C-75.14130435 128.82608696 -75.14130435 128.82608696 -80.26953125 130.19921875 C-83.5979166 130.378297 -85.81151541 129.82092787 -88.625 128.0625 C-90.80571663 124.51883548 -90.87831723 122.73400306 -90.125 118.625 C-87.57638237 114.74666883 -84.3576224 111.57469302 -80.69140625 108.75 C-76.62064231 105.41523018 -74.02761622 102.80392798 -73.4375 97.47265625 C-73.21000116 93.5732099 -73.21262871 89.67168759 -73.18945312 85.76660156 C-72.80544676 73.00711722 -65.6853234 62.58347798 -57.125 53.625 C-56.465 53.625 -55.805 53.625 -55.125 53.625 C-54.87427734 53.04975586 -54.62355469 52.47451172 -54.36523438 51.88183594 C-52.95771173 49.32058804 -51.34329975 47.58442608 -49.28125 45.515625 C-48.52972656 44.76152344 -47.77820313 44.00742188 -47.00390625 43.23046875 C-46.21886719 42.45316406 -45.43382812 41.67585938 -44.625 40.875 C-43.83996094 40.08222656 -43.05492187 39.28945312 -42.24609375 38.47265625 C-41.49457031 37.72371094 -40.74304688 36.97476563 -39.96875 36.203125 C-39.27974609 35.51637695 -38.59074219 34.82962891 -37.88085938 34.12207031 C-36.125 32.625 -36.125 32.625 -34.125 32.625 C-33.8775 32.0475 -33.63 31.47 -33.375 30.875 C-31.94200012 28.29560021 -30.34075324 26.56378408 -28.125 24.625 C-27.465 24.625 -26.805 24.625 -26.125 24.625 C-25.75375 23.75875 -25.75375 23.75875 -25.375 22.875 C-23.94200012 20.29560021 -22.34075324 18.56378408 -20.125 16.625 C-19.465 16.625 -18.805 16.625 -18.125 16.625 C-17.75375 15.75875 -17.75375 15.75875 -17.375 14.875 C-15.94200012 12.29560021 -14.34075324 10.56378408 -12.125 8.625 C-11.465 8.625 -10.805 8.625 -10.125 8.625 C-10.125 7.965 -10.125 7.305 -10.125 6.625 C-7.19838733 3.2827737 -4.38992627 0.87798525 0 0 Z " fill="#060606" transform="translate(365.125,93.375)"/>
<path d="M0 0 C2.9375 2.0625 2.9375 2.0625 5 5 C5.61338376 9.43730878 5.46512102 11.34832397 2.83415222 15.0345459 C1.82697504 16.07400738 0.80022936 17.09473149 -0.24145508 18.09960938 C-0.79924652 18.66484818 -1.35703796 19.23008698 -1.93173218 19.81245422 C-3.7775988 21.67381386 -5.64749743 23.50873853 -7.51953125 25.34375 C-8.81721504 26.63852779 -10.11363908 27.93456928 -11.40885925 29.23181152 C-14.12957974 31.94931457 -16.86177138 34.65453892 -19.60327148 37.35107422 C-23.09393827 40.78538445 -26.56018382 44.24309917 -30.01862049 47.70983124 C-32.69706655 50.39109571 -35.38568388 53.06196779 -38.07761192 55.72969055 C-39.35773278 56.99968611 -40.63539505 58.27216536 -41.91040993 59.54728699 C-52.18453516 69.79838883 -62.72243663 80.15218849 -78 81 C-79.54376939 80.95027584 -81.08696975 80.87921927 -82.62890625 80.7890625 C-93.30413715 80.30506684 -93.30413715 80.30506684 -102.35546875 85.3671875 C-104.35475294 87.37595388 -106.19165306 89.42819725 -107.97875977 91.62744141 C-112.6999297 97.39105565 -112.6999297 97.39105565 -117.234375 98.09375 C-121 98 -121 98 -124 96 C-126.49888135 92.25167798 -126.49737037 90.44059416 -126 86 C-124.10400391 83.29345703 -124.10400391 83.29345703 -121.4765625 80.7578125 C-120.538125 79.83742188 -119.5996875 78.91703125 -118.6328125 77.96875 C-117.63037475 77.02065734 -116.62776868 76.07274264 -115.625 75.125 C-114.62866681 74.15522706 -113.63385715 73.18388625 -112.640625 72.2109375 C-104.06711353 63.89580583 -104.06711353 63.89580583 -96.9609375 63.82421875 C-95.12982422 63.78844727 -95.12982422 63.78844727 -93.26171875 63.75195312 C-90.69417327 63.70937574 -88.12641658 63.67791517 -85.55859375 63.65820312 C-67.65243109 63.25423408 -58.80278428 52.02194063 -46.89686012 39.78863335 C-44.17188371 36.99363441 -41.42900451 34.21624791 -38.68945312 31.43554688 C-35.23029755 27.92234861 -31.77670675 24.40413058 -28.34106445 20.86791992 C-25.53720105 17.98292498 -22.71653226 15.11535202 -19.88385582 12.25865364 C-18.81423148 11.17363397 -17.75091367 10.08235813 -16.69425392 8.98470879 C-15.22064749 7.45551475 -13.72652657 5.94957261 -12.22583008 4.44702148 C-11.38329178 3.5859227 -10.54075348 2.72482391 -9.67268372 1.83763123 C-6.21465671 -0.53997087 -4.11556505 -0.49878098 0 0 Z " fill="#040404" transform="translate(422,147)"/>
<path d="M0 0 C3.19763779 2.18785743 3.88264374 3.44522496 4.6875 7.25 C3.0012749 16.44759145 -7.64624551 23.7936373 -14.11328125 30.24609375 C-15.17480293 31.30829045 -16.23617624 32.37063543 -17.29740906 33.43312073 C-19.50532963 35.64250511 -21.71502254 37.85009677 -23.92602539 40.05639648 C-26.76187442 42.8865068 -29.59315327 45.72114035 -32.42315388 48.55709743 C-34.6063066 50.74385573 -36.79182539 52.92823672 -38.97807884 55.11189461 C-40.02383021 56.15697887 -41.06883917 57.20280656 -42.11309242 58.24938774 C-43.56558764 59.70441392 -45.02123425 61.15621109 -46.4777832 62.60717773 C-47.71852348 63.84672462 -47.71852348 63.84672462 -48.98432922 65.11131287 C-52.2505268 68.17174586 -54.63249607 68.27505439 -59.09375 68.2265625 C-61 68 -61 68 -62.9375 66.625 C-65.13070404 63.27068794 -65.38237245 61.01708735 -65 57 C-63.41096497 54.61218262 -63.41096497 54.61218262 -61.17504883 52.31054688 C-60.34913239 51.44743896 -59.52321594 50.58433105 -58.67227173 49.69506836 C-57.34949722 48.36100952 -57.34949722 48.36100952 -56 47 C-55.15432465 46.12802979 -54.30864929 45.25605957 -53.43734741 44.35766602 C-50.71062149 41.56264084 -47.95919566 38.79333267 -45.19921875 36.03125 C-44.19026383 35.01907128 -43.18137954 34.00682213 -42.17256165 32.99450684 C-40.07927717 30.89529616 -37.98399978 28.79809885 -35.88745117 26.70214844 C-33.20482129 24.01962114 -30.52919704 21.33021768 -27.85518169 18.63910675 C-25.78338156 16.55619664 -23.70706109 14.47783865 -21.62943459 12.40074158 C-20.64026881 11.41039908 -19.65271642 10.41844229 -18.66684532 9.42481995 C-17.29396939 8.04214193 -15.91410043 6.66641801 -14.53393555 5.29101562 C-13.75277878 4.50843384 -12.97162201 3.72585205 -12.16679382 2.91955566 C-8.00744673 -0.76519652 -5.43562568 -1.58539082 0 0 Z " fill="#080808" transform="translate(392,124)"/>
<path d="M0 0 C0.66 0.33 1.32 0.66 2 1 C0.625 3 0.625 3 -1 5 C-1.66 5 -2.32 5 -3 5 C-1.125 1.125 -1.125 1.125 0 0 Z M-6 7 C-5.34 7.66 -4.68 8.32 -4 9 C-6.64 11.31 -9.28 13.62 -12 16 C-12 13 -12 13 -10.6875 11.39453125 C-10.130625 10.87246094 -9.57375 10.35039063 -9 9.8125 C-8.443125 9.28269531 -7.88625 8.75289063 -7.3125 8.20703125 C-6.6628125 7.60955078 -6.6628125 7.60955078 -6 7 Z " fill="#1A1A1A" transform="translate(75,74)"/>
<path d="M0 0 C0.66 0.33 1.32 0.66 2 1 C0.73232923 2.29477062 -0.53926224 3.58570339 -1.8125 4.875 C-2.52019531 5.59429687 -3.22789062 6.31359375 -3.95703125 7.0546875 C-6 9 -6 9 -9 11 C-9.99 10.67 -10.98 10.34 -12 10 C-11.30132812 9.44570313 -10.60265625 8.89140625 -9.8828125 8.3203125 C-8.97273438 7.59585937 -8.06265625 6.87140625 -7.125 6.125 C-6.22007812 5.40570313 -5.31515625 4.68640625 -4.3828125 3.9453125 C-1.99734824 2.06439526 -1.99734824 2.06439526 0 0 Z " fill="#212121" transform="translate(415,434)"/>
<path d="M0 0 C0.99 0.66 1.98 1.32 3 2 C2.01 2.495 2.01 2.495 1 3 C0.896875 3.639375 0.79375 4.27875 0.6875 4.9375 C0.460625 5.618125 0.23375 6.29875 0 7 C-2.5625 8.25 -2.5625 8.25 -5 9 C-3.7508258 5.54074837 -2.32472205 2.85306797 0 0 Z " fill="#E5E5E5" transform="translate(467,400)"/>
<path d="M0 0 C0.66 0.33 1.32 0.66 2 1 C0.35 2.65 -1.3 4.3 -3 6 C-3.99 5.67 -4.98 5.34 -6 5 C-4.02 3.35 -2.04 1.7 0 0 Z M-8 6 C-7.34 6.33 -6.68 6.66 -6 7 C-7.98 7.99 -7.98 7.99 -10 9 C-9.34 8.01 -8.68 7.02 -8 6 Z " fill="#E2E2E2" transform="translate(116,61)"/>
<path d="M0 0 C0.66 0.33 1.32 0.66 2 1 C-0.46153846 5.8 -0.46153846 5.8 -3.1875 6.8125 C-3.785625 6.874375 -4.38375 6.93625 -5 7 C-3.70700306 4.11562221 -2.34058637 2.12780579 0 0 Z " fill="#F5F5F5" transform="translate(392,139)"/>
</svg>
